<?xml version="1.0" encoding="UTF-8"?>
<svg version="1.1" xmlns="http://www.w3.org/2000/svg" width="56" height="56">
<path d="M0 0 C18.48 0 36.96 0 56 0 C56 18.48 56 36.96 56 56 C37.52 56 19.04 56 0 56 C0 37.52 0 19.04 0 0 Z " fill="#D4D4CA" transform="translate(0,0)"/>
<path d="M0 0 C2.64 0 5.28 0 8 0 C8 9.57 8 19.14 8 29 C10.97 29 13.94 29 17 29 C17 31.64 17 34.28 17 37 C7.1 37 -2.8 37 -13 37 C-13 34.36 -13 31.72 -13 29 C-9.7 29 -6.4 29 -3 29 C-3 24.05 -3 19.1 -3 14 C-4.98 14 -6.96 14 -9 14 C-9 11.36 -9 8.72 -9 6 C-6.03 6 -3.06 6 0 6 C0 4.02 0 2.04 0 0 Z " fill="#3270AC" transform="translate(26,9)"/>
</svg>
