<?xml version="1.0" encoding="UTF-8"?>
<svg version="1.1" xmlns="http://www.w3.org/2000/svg" width="56" height="56">
<path d="M0 0 C18.48 0 36.96 0 56 0 C56 18.48 56 36.96 56 56 C37.52 56 19.04 56 0 56 C0 37.52 0 19.04 0 0 Z " fill="#D4D4CA" transform="translate(0,0)"/>
<path d="M0 0 C9.9 0 19.8 0 30 0 C30 7.26 30 14.52 30 22 C22.74 22 15.48 22 8 22 C8 24.31 8 26.62 8 29 C15.26 29 22.52 29 30 29 C30 31.64 30 34.28 30 37 C20.1 37 10.2 37 0 37 C0 29.41 0 21.82 0 14 C7.26 14 14.52 14 22 14 C22 12.02 22 10.04 22 8 C14.74 8 7.48 8 0 8 C0 5.36 0 2.72 0 0 Z " fill="#4C8044" transform="translate(13,9)"/>
</svg>
