<?xml version="1.0" encoding="UTF-8"?>
<svg version="1.1" xmlns="http://www.w3.org/2000/svg" width="56" height="56">
<path d="M0 0 C18.48 0 36.96 0 56 0 C56 18.48 56 36.96 56 56 C37.52 56 19.04 56 0 56 C0 37.52 0 19.04 0 0 Z " fill="#D4D4CA" transform="translate(0,0)"/>
<path d="M0 0 C9.9 0 19.8 0 30 0 C30 2.64 30 5.28 30 8 C22.74 8 15.48 8 8 8 C8 9.98 8 11.96 8 14 C15.26 14 22.52 14 30 14 C30 21.59 30 29.18 30 37 C20.1 37 10.2 37 0 37 C0 34.36 0 31.72 0 29 C7.26 29 14.52 29 22 29 C22 26.69 22 24.38 22 22 C14.74 22 7.48 22 0 22 C0 14.74 0 7.48 0 0 Z " fill="#7E443A" transform="translate(13,9)"/>
</svg>
