<?xml version="1.0" encoding="UTF-8"?>
<svg version="1.1" xmlns="http://www.w3.org/2000/svg" width="56" height="56">
<path d="M0 0 C18.48 0 36.96 0 56 0 C56 18.48 56 36.96 56 56 C37.52 56 19.04 56 0 56 C0 37.52 0 19.04 0 0 Z " fill="#CACAC0" transform="translate(0,0)"/>
<path d="M0 0 C3.96 0 7.92 0 12 0 C12 9.24 12 18.48 12 28 C13.32 28 14.64 28 16 28 C16 29.32 16 30.64 16 32 C17.65 32 19.3 32 21 32 C21 34.64 21 37.28 21 40 C11.1 40 1.2 40 -9 40 C-9 37.36 -9 34.72 -9 32 C-7.35 32 -5.7 32 -4 32 C-4 30.68 -4 29.36 -4 28 C-0.7 28 2.6 28 6 28 C6 26.02 6 24.04 6 22 C4.02 22 2.04 22 0 22 C0 20.02 0 18.04 0 16 C-1.98 16 -3.96 16 -6 16 C-6 15.01 -6 14.02 -6 13 C-7.98 13 -9.96 13 -12 13 C-12 11.02 -12 9.04 -12 7 C-10.02 7 -8.04 7 -6 7 C-6 6.01 -6 5.02 -6 4 C-4.02 4 -2.04 4 0 4 C0 2.68 0 1.36 0 0 Z " fill="#C8161C" transform="translate(22,8)"/>
<path d="M0 0 C1.98 0 3.96 0 6 0 C6 1.98 6 3.96 6 6 C7.32 6 8.64 6 10 6 C10 7.32 10 8.64 10 10 C11.65 10 13.3 10 15 10 C15 12.64 15 15.28 15 18 C5.1 18 -4.8 18 -15 18 C-15 15.36 -15 12.72 -15 10 C-13.35 10 -11.7 10 -10 10 C-10 8.68 -10 7.36 -10 6 C-6.7 6 -3.4 6 0 6 C0 4.02 0 2.04 0 0 Z " fill="#1A242E" transform="translate(28,30)"/>
<path d="M0 0 C0.66 0 1.32 0 2 0 C2 18.48 2 36.96 2 56 C-16.48 56 -34.96 56 -54 56 C-54 55.34 -54 54.68 -54 54 C-36.18 54 -18.36 54 0 54 C0 36.18 0 18.36 0 0 Z " fill="#A2A298" transform="translate(54,0)"/>
</svg>
