<?xml version="1.0" encoding="UTF-8"?>
<!DOCTYPE svg PUBLIC "-//W3C//DTD SVG 1.1//EN" "http://www.w3.org/Graphics/SVG/1.1/DTD/svg11.dtd">
<svg xmlns="http://www.w3.org/2000/svg" version="1.1" width="82px" height="82px" style="shape-rendering:geometricPrecision; text-rendering:geometricPrecision; image-rendering:optimizeQuality; fill-rule:evenodd; clip-rule:evenodd" xmlns:xlink="http://www.w3.org/1999/xlink">
<g><path style="opacity:1" fill="#c9cac3" d="M -0.5,-0.5 C 26.8333,-0.5 54.1667,-0.5 81.5,-0.5C 81.5,26.8333 81.5,54.1667 81.5,81.5C 54.1667,81.5 26.8333,81.5 -0.5,81.5C -0.5,54.1667 -0.5,26.8333 -0.5,-0.5 Z"/></g>
<g><path style="opacity:1" fill="#1a242d" d="M 65.5,15.5 C 48.8333,15.5 32.1667,15.5 15.5,15.5C 15.5,12.8333 15.5,10.1667 15.5,7.5C 32.1667,7.5 48.8333,7.5 65.5,7.5C 65.5,10.1667 65.5,12.8333 65.5,15.5 Z"/></g>
<g><path style="opacity:1" fill="#1a242d" d="M 15.5,15.5 C 15.5,32.1667 15.5,48.8333 15.5,65.5C 12.8333,65.5 10.1667,65.5 7.5,65.5C 7.5,48.8333 7.5,32.1667 7.5,15.5C 10.1667,15.5 12.8333,15.5 15.5,15.5 Z"/></g>
<g><path style="opacity:1" fill="#ebd451" d="M 15.5,15.5 C 32.1667,15.5 48.8333,15.5 65.5,15.5C 65.5,32.1667 65.5,48.8333 65.5,65.5C 48.8333,65.5 32.1667,65.5 15.5,65.5C 15.5,48.8333 15.5,32.1667 15.5,15.5 Z"/></g>
<g><path style="opacity:1" fill="#1a242d" d="M 65.5,15.5 C 68.1667,15.5 70.8333,15.5 73.5,15.5C 73.5,32.1667 73.5,48.8333 73.5,65.5C 70.8333,65.5 68.1667,65.5 65.5,65.5C 65.5,48.8333 65.5,32.1667 65.5,15.5 Z"/></g>
<g><path style="opacity:1" fill="#1a242d" d="M 30.5,29.5 C 29.1667,29.5 27.8333,29.5 26.5,29.5C 26.5,28.1667 26.5,26.8333 26.5,25.5C 27.8333,25.5 29.1667,25.5 30.5,25.5C 30.5,26.8333 30.5,28.1667 30.5,29.5 Z"/></g>
<g><path style="opacity:1" fill="#1a242d" d="M 34.5,29.5 C 34.5,28.1667 34.5,26.8333 34.5,25.5C 35.8333,25.5 37.1667,25.5 38.5,25.5C 38.5,26.8333 38.5,28.1667 38.5,29.5C 37.1667,29.5 35.8333,29.5 34.5,29.5 Z"/></g>
<g><path style="opacity:1" fill="#1a242d" d="M 46.5,29.5 C 45.1667,29.5 43.8333,29.5 42.5,29.5C 42.5,28.1667 42.5,26.8333 42.5,25.5C 43.8333,25.5 45.1667,25.5 46.5,25.5C 46.5,26.8333 46.5,28.1667 46.5,29.5 Z"/></g>
<g><path style="opacity:1" fill="#1a242d" d="M 50.5,29.5 C 50.5,28.1667 50.5,26.8333 50.5,25.5C 51.8333,25.5 53.1667,25.5 54.5,25.5C 54.5,26.8333 54.5,28.1667 54.5,29.5C 53.1667,29.5 51.8333,29.5 50.5,29.5 Z"/></g>
<g><path style="opacity:1" fill="#1a242d" d="M 30.5,29.5 C 31.8333,29.5 33.1667,29.5 34.5,29.5C 34.5,30.8333 34.5,32.1667 34.5,33.5C 33.1667,33.5 31.8333,33.5 30.5,33.5C 30.5,32.1667 30.5,30.8333 30.5,29.5 Z"/></g>
<g><path style="opacity:1" fill="#1a242d" d="M 46.5,29.5 C 47.8333,29.5 49.1667,29.5 50.5,29.5C 50.5,30.8333 50.5,32.1667 50.5,33.5C 49.1667,33.5 47.8333,33.5 46.5,33.5C 46.5,32.1667 46.5,30.8333 46.5,29.5 Z"/></g>
<g><path style="opacity:1" fill="#1a242d" d="M 30.5,33.5 C 30.5,34.8333 30.5,36.1667 30.5,37.5C 29.1667,37.5 27.8333,37.5 26.5,37.5C 26.5,36.1667 26.5,34.8333 26.5,33.5C 27.8333,33.5 29.1667,33.5 30.5,33.5 Z"/></g>
<g><path style="opacity:1" fill="#1a242d" d="M 34.5,33.5 C 35.8333,33.5 37.1667,33.5 38.5,33.5C 38.5,34.8333 38.5,36.1667 38.5,37.5C 37.1667,37.5 35.8333,37.5 34.5,37.5C 34.5,36.1667 34.5,34.8333 34.5,33.5 Z"/></g>
<g><path style="opacity:1" fill="#1a242d" d="M 46.5,33.5 C 46.5,34.8333 46.5,36.1667 46.5,37.5C 45.1667,37.5 43.8333,37.5 42.5,37.5C 42.5,36.1667 42.5,34.8333 42.5,33.5C 43.8333,33.5 45.1667,33.5 46.5,33.5 Z"/></g>
<g><path style="opacity:1" fill="#1a242d" d="M 50.5,33.5 C 51.8333,33.5 53.1667,33.5 54.5,33.5C 54.5,34.8333 54.5,36.1667 54.5,37.5C 53.1667,37.5 51.8333,37.5 50.5,37.5C 50.5,36.1667 50.5,34.8333 50.5,33.5 Z"/></g>
<g><path style="opacity:1" fill="#1a242d" d="M 28.5,49.5 C 36.5,49.5 44.5,49.5 52.5,49.5C 52.5,52.1667 52.5,54.8333 52.5,57.5C 44.5,57.5 36.5,57.5 28.5,57.5C 28.5,54.8333 28.5,52.1667 28.5,49.5 Z"/></g>
<g><path style="opacity:1" fill="#1a242d" d="M 15.5,65.5 C 32.1667,65.5 48.8333,65.5 65.5,65.5C 65.5,68.1667 65.5,70.8333 65.5,73.5C 48.8333,73.5 32.1667,73.5 15.5,73.5C 15.5,70.8333 15.5,68.1667 15.5,65.5 Z"/></g>
</svg>
