<?xml version="1.0" encoding="UTF-8"?>
<!DOCTYPE svg PUBLIC "-//W3C//DTD SVG 1.1//EN" "http://www.w3.org/Graphics/SVG/1.1/DTD/svg11.dtd">
<svg xmlns="http://www.w3.org/2000/svg" version="1.1" width="56px" height="56px" style="shape-rendering:geometricPrecision; text-rendering:geometricPrecision; image-rendering:optimizeQuality; fill-rule:evenodd; clip-rule:evenodd" xmlns:xlink="http://www.w3.org/1999/xlink">
<g><path style="opacity:1" fill="#d3d4c9" d="M -0.5,-0.5 C 18.1667,-0.5 36.8333,-0.5 55.5,-0.5C 55.5,18.1667 55.5,36.8333 55.5,55.5C 36.8333,55.5 18.1667,55.5 -0.5,55.5C -0.5,36.8333 -0.5,18.1667 -0.5,-0.5 Z"/></g>
<g><path style="opacity:1" fill="#1a242d" d="M 25.5,6.5 C 26.8333,6.5 28.1667,6.5 29.5,6.5C 29.5,7.83333 29.5,9.16667 29.5,10.5C 31.8333,10.5 34.1667,10.5 36.5,10.5C 36.5,11.8333 36.5,13.1667 36.5,14.5C 37.8333,14.5 39.1667,14.5 40.5,14.5C 40.5,15.8333 40.5,17.1667 40.5,18.5C 41.8333,18.5 43.1667,18.5 44.5,18.5C 44.5,20.8333 44.5,23.1667 44.5,25.5C 45.8333,25.5 47.1667,25.5 48.5,25.5C 48.5,26.8333 48.5,28.1667 48.5,29.5C 47.1667,29.5 45.8333,29.5 44.5,29.5C 44.5,31.8333 44.5,34.1667 44.5,36.5C 43.1667,36.5 41.8333,36.5 40.5,36.5C 40.5,37.8333 40.5,39.1667 40.5,40.5C 39.1667,40.5 37.8333,40.5 36.5,40.5C 36.5,41.8333 36.5,43.1667 36.5,44.5C 34.1667,44.5 31.8333,44.5 29.5,44.5C 29.5,45.8333 29.5,47.1667 29.5,48.5C 28.1667,48.5 26.8333,48.5 25.5,48.5C 25.5,47.1667 25.5,45.8333 25.5,44.5C 23.1667,44.5 20.8333,44.5 18.5,44.5C 18.5,43.1667 18.5,41.8333 18.5,40.5C 17.1667,40.5 15.8333,40.5 14.5,40.5C 14.5,39.1667 14.5,37.8333 14.5,36.5C 13.1667,36.5 11.8333,36.5 10.5,36.5C 10.5,34.1667 10.5,31.8333 10.5,29.5C 9.16667,29.5 7.83333,29.5 6.5,29.5C 6.5,28.1667 6.5,26.8333 6.5,25.5C 7.83333,25.5 9.16667,25.5 10.5,25.5C 10.5,23.1667 10.5,20.8333 10.5,18.5C 11.8333,18.5 13.1667,18.5 14.5,18.5C 14.5,17.1667 14.5,15.8333 14.5,14.5C 15.8333,14.5 17.1667,14.5 18.5,14.5C 18.5,13.1667 18.5,11.8333 18.5,10.5C 20.8333,10.5 23.1667,10.5 25.5,10.5C 25.5,9.16667 25.5,7.83333 25.5,6.5 Z"/></g>
<g><path style="opacity:1" fill="#e7e8dd" d="M 21.5,17.5 C 22.8333,17.5 24.1667,17.5 25.5,17.5C 25.5,18.8333 25.5,20.1667 25.5,21.5C 24.1667,21.5 22.8333,21.5 21.5,21.5C 21.5,20.1667 21.5,18.8333 21.5,17.5 Z"/></g>
</svg>
