<?xml version="1.0" encoding="UTF-8"?>
<!DOCTYPE svg PUBLIC "-//W3C//DTD SVG 1.1//EN" "http://www.w3.org/Graphics/SVG/1.1/DTD/svg11.dtd">
<svg xmlns="http://www.w3.org/2000/svg" version="1.1" width="82px" height="82px" style="shape-rendering:geometricPrecision; text-rendering:geometricPrecision; image-rendering:optimizeQuality; fill-rule:evenodd; clip-rule:evenodd" xmlns:xlink="http://www.w3.org/1999/xlink">
<g><path style="opacity:1" fill="#c9cac3" d="M -0.5,-0.5 C 26.8333,-0.5 54.1667,-0.5 81.5,-0.5C 81.5,26.8333 81.5,54.1667 81.5,81.5C 54.1667,81.5 26.8333,81.5 -0.5,81.5C -0.5,54.1667 -0.5,26.8333 -0.5,-0.5 Z"/></g>
<g><path style="opacity:1" fill="#1a242d" d="M 65.5,15.5 C 48.8333,15.5 32.1667,15.5 15.5,15.5C 15.5,12.8333 15.5,10.1667 15.5,7.5C 32.1667,7.5 48.8333,7.5 65.5,7.5C 65.5,10.1667 65.5,12.8333 65.5,15.5 Z"/></g>
<g><path style="opacity:1" fill="#1a242d" d="M 15.5,15.5 C 15.5,32.1667 15.5,48.8333 15.5,65.5C 12.8333,65.5 10.1667,65.5 7.5,65.5C 7.5,48.8333 7.5,32.1667 7.5,15.5C 10.1667,15.5 12.8333,15.5 15.5,15.5 Z"/></g>
<g><path style="opacity:1" fill="#ebd451" d="M 15.5,15.5 C 32.1667,15.5 48.8333,15.5 65.5,15.5C 65.5,32.1667 65.5,48.8333 65.5,65.5C 48.8333,65.5 32.1667,65.5 15.5,65.5C 15.5,48.8333 15.5,32.1667 15.5,15.5 Z"/></g>
<g><path style="opacity:1" fill="#1a242d" d="M 65.5,15.5 C 68.1667,15.5 70.8333,15.5 73.5,15.5C 73.5,32.1667 73.5,48.8333 73.5,65.5C 70.8333,65.5 68.1667,65.5 65.5,65.5C 65.5,48.8333 65.5,32.1667 65.5,15.5 Z"/></g>
<g><path style="opacity:1" fill="#1a242d" d="M 28.5,25.5 C 31.1667,25.5 33.8333,25.5 36.5,25.5C 36.5,28.1667 36.5,30.8333 36.5,33.5C 33.8333,33.5 31.1667,33.5 28.5,33.5C 28.5,30.8333 28.5,28.1667 28.5,25.5 Z"/></g>
<g><path style="opacity:1" fill="#1a242d" d="M 44.5,25.5 C 47.1667,25.5 49.8333,25.5 52.5,25.5C 52.5,28.1667 52.5,30.8333 52.5,33.5C 49.8333,33.5 47.1667,33.5 44.5,33.5C 44.5,30.8333 44.5,28.1667 44.5,25.5 Z"/></g>
<g><path style="opacity:1" fill="#1a242d" d="M 28.5,49.5 C 25.8333,49.5 23.1667,49.5 20.5,49.5C 20.5,46.8333 20.5,44.1667 20.5,41.5C 23.1667,41.5 25.8333,41.5 28.5,41.5C 28.5,44.1667 28.5,46.8333 28.5,49.5 Z"/></g>
<g><path style="opacity:1" fill="#1a242d" d="M 52.5,49.5 C 52.5,46.8333 52.5,44.1667 52.5,41.5C 55.1667,41.5 57.8333,41.5 60.5,41.5C 60.5,44.1667 60.5,46.8333 60.5,49.5C 57.8333,49.5 55.1667,49.5 52.5,49.5 Z"/></g>
<g><path style="opacity:1" fill="#1a242d" d="M 28.5,49.5 C 36.5,49.5 44.5,49.5 52.5,49.5C 52.5,52.1667 52.5,54.8333 52.5,57.5C 44.5,57.5 36.5,57.5 28.5,57.5C 28.5,54.8333 28.5,52.1667 28.5,49.5 Z"/></g>
<g><path style="opacity:1" fill="#1a242d" d="M 15.5,65.5 C 32.1667,65.5 48.8333,65.5 65.5,65.5C 65.5,68.1667 65.5,70.8333 65.5,73.5C 48.8333,73.5 32.1667,73.5 15.5,73.5C 15.5,70.8333 15.5,68.1667 15.5,65.5 Z"/></g>
</svg>
